<svg
    width="36" height="36" viewBox="0 0 36 36" fill="none" xmlns="http://www.w3.org/2000/svg">
    <g clip-path="url(#clip0_1_688)">
    <path fill-rule="evenodd" clip-rule="evenodd" d="M19.0374 11.879C19.1152 11.879 19.1801 13.8371 19.1801 16.2623C19.1801 18.6873 19.1152 20.6455 19.0374 20.6455C18.9597 20.6455 18.8949 18.6873 18.8949 16.2623C18.8949 13.8501 18.9597 11.879 19.0374 11.879ZM16.8588 16.794C16.9237 16.794 16.9754 18.3243 16.9754 20.2047C16.9754 22.0851 16.9237 23.6152 16.8588 23.6152C16.794 23.6152 16.7421 22.0851 16.7421 20.2047C16.7421 18.3243 16.794 16.794 16.8588 16.794ZM30.2551 13.5908C30.3329 13.5908 30.3977 15.549 30.3977 17.9741C30.3977 20.3991 30.3329 22.3573 30.2551 22.3573C30.1772 22.3573 30.1124 20.3991 30.1124 17.9741C30.1124 15.549 30.1772 13.5908 30.2551 13.5908ZM25.3531 14.6931C25.392 14.6931 25.4308 15.6656 25.4308 16.8718C25.4308 18.0778 25.392 19.0504 25.3531 19.0504C25.3142 19.0504 25.2752 18.0778 25.2752 16.8718C25.2882 15.6787 25.3142 14.6931 25.3531 14.6931ZM11.0879 26.1051C11.1268 26.1051 11.1657 27.0778 11.1657 28.2839C11.1657 29.4899 11.1268 30.4626 11.0879 30.4626C11.049 30.4626 11.0101 29.4899 11.0101 28.2839C11.0101 27.0778 11.049 26.1051 11.0879 26.1051ZM7.19741 20.5418C7.27522 20.5418 7.34006 22.513 7.34006 24.925C7.34006 27.3501 7.27522 29.3083 7.19741 29.3083C7.11959 29.3083 7.05475 27.3371 7.05475 24.925C7.04178 22.5 7.11959 20.5418 7.19741 20.5418ZM3.4755 23.1614C3.51441 23.1614 3.55332 24.1341 3.55332 25.3401C3.55332 26.5461 3.51441 27.5187 3.4755 27.5187C3.43659 27.5187 3.39769 26.5461 3.39769 25.3401C3.39769 24.1341 3.43659 23.1614 3.4755 23.1614ZM36 4.75937C36 3.44956 35.4683 2.25649 34.5994 1.40057C33.7436 0.5317 32.5504 0 31.2406 0H4.75937C3.44956 0 2.25649 0.5317 1.40057 1.40057C0.5317 2.25649 0 3.44956 0 4.75937V31.2406C0 32.5504 0.5317 33.7436 1.40057 34.5994C2.25649 35.4553 3.44956 36 4.75937 36H31.2406C32.5504 36 33.7436 35.4683 34.5994 34.5994C35.4553 33.7436 36 32.5504 36 31.2406V4.75937ZM0.985591 26.6757V4.75937C0.985591 3.7219 1.41354 2.78819 2.08789 2.10086C2.77522 1.41354 3.70893 0.998559 4.7464 0.998559H31.2276C32.2651 0.998559 33.1988 1.42651 33.8861 2.10086C34.5735 2.78819 34.9885 3.7219 34.9885 4.75937V19.6469C34.9885 19.5303 34.9626 19.4265 34.9107 19.3228C34.6902 18.8949 34.4956 18.4928 34.327 18.1038V18.1816L34.1715 23.6801L34.0158 18.1816C33.9769 16.6383 33.6139 15.1858 33.4712 13.6167C33.3285 12.7997 32.3949 10.7637 32.33 12.8645L32.1744 18.3632L32.0317 12.8645C31.9928 11.464 32.1095 10.5821 30.5662 9.89481C30.0864 9.66139 29.451 10.0764 28.6341 11.1138C28.3228 11.5288 28.2709 19.1671 28.245 20.2306C28.1931 18.5187 28.232 11.5548 27.7133 10.4265C27.6614 10.3228 27.6095 10.245 27.5706 10.1931C27.3501 9.95965 27.3501 10.3617 27.3113 10.4525C27.2075 10.6988 27.2335 10.7118 27.2205 10.9842L27.0649 16.4827C27.0389 15.6917 27.0389 10.5173 26.7665 10.1801C26.3646 9.67436 25.9754 9.95965 25.7421 10.4395C25.4439 11.036 25.5605 11.6326 25.3401 12.2939C25.1326 12.9424 25.1066 12.9164 24.7953 13.4611C24.6528 13.7205 24.4582 14.0836 24.2377 14.5374C23.9784 15.0822 23.7709 15.0822 23.4727 15.536C23.2262 15.8991 23.0447 16.3659 22.9149 16.9496C22.7852 17.5461 22.7852 17.8703 22.3184 17.0015C22.2148 16.8069 22.111 16.5605 22.0072 16.2623L21.9294 18.817L21.8386 15.7306C21.7867 15.549 21.7349 15.3415 21.683 15.1341L21.6441 15.0561L21.4885 20.2047L21.3718 16.3271L21.3199 14.33C21.255 14.1614 21.1902 13.9928 21.1253 13.8113L21.0475 16.405L20.892 21.9035L20.7363 16.405C20.6585 13.6686 20.5158 11.9568 20.1139 9.28531C20.075 9.15561 19.9582 8.53314 19.7896 7.43083C19.7118 6.89914 19.2579 6.49712 18.7133 6.51009C18.2594 6.52306 18.2724 6.78243 18 7.09366C17.5591 7.6124 17.6757 11.4251 17.6499 12.3458L17.4943 17.8444L17.3386 12.3458C17.3256 11.8141 17.3386 7.91066 17.1181 7.79395C17.0273 7.74208 16.9496 7.81988 16.8977 8.02738C16.8977 8.183 16.8848 8.32564 16.8718 8.44237L16.7291 13.2406L16.6124 8.93516C16.5346 8.97406 16.4439 9.01297 16.3271 9.10374C15.8861 9.40202 15.575 9.85591 15.3804 10.4654C15.0692 11.451 15.108 11.4769 15.0692 12.5663L14.9136 18.0649L14.7579 12.5663L14.732 11.451C14.2651 12.0735 13.8371 13.6686 13.4611 16.2623C13.3444 18.5187 13.085 21.1124 12.696 24.0561L12.5014 30.9294L12.3458 25.4308C12.3329 24.8083 12.3199 24.6139 12.1772 24.0173C12.0994 23.6801 12.1254 23.4466 11.9049 23.1873C11.5158 22.7205 11.1009 22.4481 10.6599 22.3444C10.2968 22.4092 9.99855 22.3833 9.7781 22.2665L9.76513 22.7852L9.6095 28.2839L9.45389 22.7852L9.42795 21.9553C9.42795 21.9294 9.41499 21.9035 9.40202 21.8646C9.15561 21.294 8.84439 20.464 8.48127 19.3487C8.35158 18.9466 8.13113 18.6744 8.06629 18.2852C7.98848 17.7925 8.07925 17.8444 8.13113 17.4553C8.17003 17.183 7.97551 17.0792 7.91066 16.794C7.87175 16.6383 7.88472 16.4827 7.88472 16.3012C7.88472 15.3545 8.04035 15.4452 7.39193 15.0173C7.21038 14.9006 7.02882 14.745 6.8343 14.5374C6.6268 14.0706 6.35447 13.9279 6.00433 14.1225C5.71902 14.2781 5.60231 14.6542 5.39481 14.9136C5.34294 14.9784 5.30404 15.0303 5.25216 15.0822C5.21326 15.1211 5.18732 15.1729 5.18732 15.2377L5.13545 17.1959L4.97983 22.6946L4.82421 17.1959L4.79827 16.1974C4.79827 16.0937 4.72047 16.0029 4.61671 15.9769C4.51297 15.951 4.40922 15.9899 4.35735 16.0807C4.35735 16.0807 4.35735 16.0937 4.34439 16.0937C4.14985 16.4439 3.9683 16.8588 3.81268 17.3516C3.79971 17.3775 3.79971 17.3905 3.79971 17.4164L3.67003 22.0461L3.56629 18.2982C3.41066 18.9727 3.29395 19.7507 3.21614 20.6196C3.07349 22.0072 2.3732 24.5879 1.12824 26.2089C1.03746 26.3646 0.998559 26.5072 0.985591 26.6757ZM28.9971 31.9151C30.0994 31.9151 31.3573 31.5778 31.7852 30.4626C32.2392 29.2694 31.876 28.3098 31.0849 27.6095C30.3718 26.987 29.438 26.8054 28.7377 26.3775C28.3617 26.1441 28.0374 25.8588 28.1801 25.3659C28.3876 24.6009 29.425 24.7047 29.8659 25.1845L30.0994 25.5346L31.4351 24.6917C30.8386 23.5893 29.7752 23.1744 28.5822 23.33C27.0519 23.5246 26.157 24.7564 26.5072 26.2478C26.9351 28.1023 29.036 27.9985 29.9827 28.9452C30.5792 29.5418 30.0994 30.3199 29.2953 30.3848C28.4006 30.4496 27.8041 30.1124 27.3371 29.3472L25.9626 30.1772C26.5721 31.4222 27.6484 31.9279 28.9971 31.9151ZM24.4452 31.0721C24.8213 30.5922 25.0029 29.9048 24.964 29.036V23.3819H23.2392V28.7377C23.2392 29.3083 23.3689 30.1513 22.6686 30.3458C21.9424 30.5403 21.5015 30.0994 21.1902 29.4899L19.8026 30.3329C20.0879 30.9164 20.4899 31.3444 21.0216 31.6167C22.0851 32.1614 23.6801 32.0576 24.4452 31.0721ZM15.3285 22.3054C15.3674 22.3054 15.4063 23.2781 15.4063 24.4842C15.4063 25.6902 15.3674 26.6629 15.3285 26.6629C15.2896 26.6629 15.2507 25.6902 15.2507 24.4842C15.2637 23.2781 15.2896 22.3054 15.3285 22.3054Z" fill="#EDE060"/>
    </g>
    <defs>
    <clipPath id="clip0_1_688">
    <rect width="36" height="36" fill="white"/>
    </clipPath>
    </defs>
    </svg>
    